<svg xmlns="http://www.w3.org/2000/svg" width="42" height="42" viewBox="0 0 42 42">
  <g id="_646197_cancel_close_cross_delete_remove_icon_1_" data-name="646197_cancel_close_cross_delete_remove_icon (1)" transform="translate(-7 -7)">
    <path id="Path_8" data-name="Path 8" d="M28,7A21,21,0,1,0,49,28,21,21,0,0,0,28,7Zm0,40.32A19.32,19.32,0,1,1,47.32,28,19.342,19.342,0,0,1,28,47.32Z" fill="#0092bd"/>
    <path id="Path_9" data-name="Path 9" d="M162.953,144.2l-1.209-1.209-8.463,8.463-8.423-8.423-1.209,1.209,8.423,8.423-8.423,8.424,1.209,1.209,8.423-8.424,8.463,8.465,1.209-1.209-8.463-8.464Z" transform="translate(-125.292 -124.688)" fill="#0092bd"/>
  </g>
</svg>
