<svg xmlns="http://www.w3.org/2000/svg" width="33.792" height="20" viewBox="0 0 33.792 20">
  <path id="eye" d="M19.9,9C8.2,9,3,19,3,19S8.2,29,19.9,29s16.9-10,16.9-10S31.593,9,19.9,9Zm0,1.429C9.5,10.429,4.56,19,4.56,19S9.5,27.571,19.9,27.571,35.233,19,35.233,19,30.294,10.429,19.9,10.429Zm0,14.286A5.475,5.475,0,0,0,25.095,19a5.475,5.475,0,0,0-5.2-5.714A5.475,5.475,0,0,0,14.7,19a5.475,5.475,0,0,0,5.2,5.714Zm0-1.429A4.106,4.106,0,0,0,23.8,19a4.106,4.106,0,0,0-3.9-4.286A4.106,4.106,0,0,0,16,19a4.106,4.106,0,0,0,3.9,4.286Zm0-2.857A1.435,1.435,0,1,0,18.6,19a1.369,1.369,0,0,0,1.3,1.429Z" transform="translate(-3 -9)" fill="#0092bd" fill-rule="evenodd"/>
</svg>
