<svg xmlns="http://www.w3.org/2000/svg" width="34.677" height="20.078" viewBox="0 0 34.677 20.078">
  <g id="Group_43" data-name="Group 43" transform="translate(-405.963 -203.439)">
    <path id="eye" d="M19.9,9C8.2,9,3,19,3,19S8.2,29,19.9,29s16.9-10,16.9-10S31.593,9,19.9,9Zm0,1.429C9.5,10.429,4.56,19,4.56,19S9.5,27.571,19.9,27.571,35.233,19,35.233,19,30.294,10.429,19.9,10.429Zm0,14.286A5.475,5.475,0,0,0,25.095,19a5.475,5.475,0,0,0-5.2-5.714A5.475,5.475,0,0,0,14.7,19a5.475,5.475,0,0,0,5.2,5.714Zm0-1.429A4.106,4.106,0,0,0,23.8,19a4.106,4.106,0,0,0-3.9-4.286A4.106,4.106,0,0,0,16,19a4.106,4.106,0,0,0,3.9,4.286Zm0-2.857A1.435,1.435,0,1,0,18.6,19a1.369,1.369,0,0,0,1.3,1.429Z" transform="translate(403.208 194.478)" fill="#0092bd" fill-rule="evenodd"/>
    <path id="Path_6" data-name="Path 6" d="M406.208,223.449l34.187-19.206" transform="translate(0 -0.368)" fill="none" stroke="#0092bd" stroke-width="1"/>
  </g>
</svg>
