<svg xmlns="http://www.w3.org/2000/svg" width="29" height="29" viewBox="0 0 29 29">
  <g id="Group_2" data-name="Group 2" transform="translate(0.5 0.5)">
    <g id="_4719311_lock_locked_padlock_password_protect_icon" data-name="4719311_lock_locked_padlock_password_protect_icon">
      <circle id="Ellipse_1" data-name="Ellipse 1" cx="14" cy="14" r="14" transform="translate(0 0)" fill="rgba(0,0,0,0)" stroke="#0092bd" stroke-linecap="round" stroke-linejoin="round" stroke-width="1"/>
      <rect id="Rectangle_13" data-name="Rectangle 13" width="10.649" height="7.474" rx="3.737" transform="translate(8.674 13.008)" fill="rgba(0,0,0,0)" stroke="#0092bd" stroke-linecap="round" stroke-linejoin="round" stroke-width="1"/>
      <path id="Path_2" data-name="Path 2" d="M49.614,33.69h0a3.374,3.374,0,0,1,3.374,3.374v2.055H46.24V37.064A3.374,3.374,0,0,1,49.614,33.69Z" transform="translate(-35.614 -26.179)" fill="rgba(0,0,0,0)" stroke="#0092bd" stroke-linecap="round" stroke-linejoin="round" stroke-width="1"/>
      <path id="Path_3" data-name="Path 3" d="M58.065,65.152a.934.934,0,0,1-.441.87v1.1a.49.49,0,0,1-.49.49h0a.49.49,0,0,1-.49-.49v-1.1a.934.934,0,1,1,1.425-.87Z" transform="translate(-43.134 -49.217)" fill="rgba(0,0,0,0)" stroke="#0092bd" stroke-linecap="round" stroke-linejoin="round" stroke-width="1"/>
    </g>
  </g>
</svg>
