<svg xmlns="http://www.w3.org/2000/svg" xmlns:xlink="http://www.w3.org/1999/xlink" width="142" height="142" viewBox="0 0 142 142">
  <defs>
    <radialGradient id="radial-gradient" cx="0.5" cy="0.5" r="0.5" gradientUnits="objectBoundingBox">
      <stop offset="0" stop-color="#0aa4d2"/>
      <stop offset="1" stop-color="#0092bd"/>
    </radialGradient>
  </defs>
  <g id="Group_44" data-name="Group 44" transform="translate(-649 -303)">
    <path id="Polygon_1" data-name="Polygon 1" d="M98.959.37a2,2,0,0,1,2.214.917l14.471,24.371a2,2,0,0,0,.7.7l24.371,14.471a2,2,0,0,1,.917,2.214l-7,27.465a2,2,0,0,0,0,.988l7,27.465a2,2,0,0,1-.917,2.214l-24.371,14.471a2,2,0,0,0-.7.7l-14.471,24.371a2,2,0,0,1-2.214.917l-27.465-7a2,2,0,0,0-.988,0l-27.465,7a2,2,0,0,1-2.214-.917L26.356,116.343a2,2,0,0,0-.7-.7L1.286,101.173A2,2,0,0,1,.37,98.959l7-27.465a2,2,0,0,0,0-.988l-7-27.465a2,2,0,0,1,.917-2.214L25.657,26.356a2,2,0,0,0,.7-.7L40.827,1.286A2,2,0,0,1,43.041.37l27.465,7a2,2,0,0,0,.988,0Z" transform="translate(649 303)" fill="url(#radial-gradient)"/>
    <path id="_1303886_accept_check_circle_complete_correct_icon" data-name="1303886_accept_check_circle_complete_correct_icon" d="M38.676,65a2.27,2.27,0,0,1-1.477-.546l-13.413-11.5a2.269,2.269,0,1,1,2.954-3.446l11.605,9.948L63.71,26.85a2.269,2.269,0,1,1,3.582,2.786L40.466,64.127a2.267,2.267,0,0,1-1.564.864C38.827,65,38.752,65,38.676,65Zm52.09-19.62A45.383,45.383,0,1,0,45.383,90.766,45.434,45.434,0,0,0,90.766,45.383Zm-4.538,0A40.845,40.845,0,1,1,45.383,4.538,40.891,40.891,0,0,1,86.227,45.383Z" transform="translate(674 327)" fill="#fff"/>
  </g>
</svg>
