<svg xmlns="http://www.w3.org/2000/svg" width="28" height="28" viewBox="0 0 28 28">
  <path id="_370076_account_avatar_client_male_person_icon" data-name="370076_account_avatar_client_male_person_icon" d="M20.109,5a14,14,0,1,0,14,14A14,14,0,0,0,20.109,5Zm0,1.167A12.825,12.825,0,0,1,29.975,27.2c-1.279-.534-4.3-1.583-6.169-2.135-.159-.05-.185-.058-.185-.722a3.83,3.83,0,0,1,.445-1.567,8.035,8.035,0,0,0,.622-2.127,4.79,4.79,0,0,0,.918-2.217,2.92,2.92,0,0,0-.028-1.861c-.015-.039-.031-.078-.042-.117a12.163,12.163,0,0,1,.207-2.616,4.8,4.8,0,0,0-1.007-3.457,5.158,5.158,0,0,0-3.942-1.887H19.616a5.136,5.136,0,0,0-3.907,1.886A4.8,4.8,0,0,0,14.7,13.835a12.177,12.177,0,0,1,.208,2.611.959.959,0,0,1-.043.122,2.922,2.922,0,0,0-.027,1.861,4.765,4.765,0,0,0,.918,2.217,7.951,7.951,0,0,0,.622,2.127,3.784,3.784,0,0,1,.256,1.591c0,.664-.025.672-.174.719-1.933.571-5.011,1.683-6.158,2.185a12.824,12.824,0,0,1,9.8-21.1Zm-8.96,22.01c1.314-.536,3.933-1.471,5.653-1.979,1-.316,1-1.158,1-1.835a5.039,5.039,0,0,0-.367-2.088,6.6,6.6,0,0,1-.54-1.944.578.578,0,0,0-.2-.388,3.478,3.478,0,0,1-.716-1.743c-.17-.846-.1-1.031-.028-1.21a2.263,2.263,0,0,0,.081-.236,11.434,11.434,0,0,0-.186-3.127,3.652,3.652,0,0,1,.778-2.529,3.98,3.98,0,0,1,3.024-1.438h1.106a4.008,4.008,0,0,1,3.06,1.44,3.649,3.649,0,0,1,.777,2.529,11.471,11.471,0,0,0-.186,3.126c.024.085.051.161.081.237.07.179.141.364-.027,1.21a3.474,3.474,0,0,1-.717,1.743.588.588,0,0,0-.2.388,6.566,6.566,0,0,1-.539,1.944,4.953,4.953,0,0,0-.556,2.064c0,.677,0,1.519,1.011,1.838,1.646.486,4.278,1.391,5.668,1.937a12.805,12.805,0,0,1-17.984.063Z" transform="translate(-6.109 -5)" fill="#0092bd"/>
</svg>
